<svg xmlns="http://www.w3.org/2000/svg" width="22.2" height="22.5" viewBox="0 0 22.2 22.5">
  <g id="Group_274" data-name="Group 274" transform="translate(-13 -12.5)">
    <path id="Path_121" data-name="Path 121" d="M31.57,12.5H16.63A3.623,3.623,0,0,0,13,16.13V27.47a3.623,3.623,0,0,0,3.63,3.63H19.3v3.81l.81.09h.18c.69,0,2.91-.3,4.77-3.9h6.51a3.623,3.623,0,0,0,3.63-3.63V16.13A3.623,3.623,0,0,0,31.57,12.5ZM33.4,27.47a1.818,1.818,0,0,1-1.83,1.83H23.92l-.24.51a6.17,6.17,0,0,1-2.58,3.15V29.3H16.63a1.818,1.818,0,0,1-1.83-1.83V16.13a1.818,1.818,0,0,1,1.83-1.83H31.57a1.818,1.818,0,0,1,1.83,1.83Z" fill="#4c4c4c"/>
  </g>
</svg>
