<svg xmlns="http://www.w3.org/2000/svg" width="25.002" height="22.5" viewBox="0 0 25.002 22.5">
  <path id="Path_116" data-name="Path 116" d="M19.5,3a7.388,7.388,0,0,0-5,1.925A7.388,7.388,0,0,0,9.5,3,7.5,7.5,0,0,0,2,10.5C2,17.189,12.6,24.477,13.8,25.29a1.25,1.25,0,0,0,1.388,0C16.4,24.477,27,17.189,27,10.5A7.5,7.5,0,0,0,19.5,3Zm-5,19.727c-3.325-2.375-10-8-10-12.226a4.982,4.982,0,0,1,9-2.963,1.25,1.25,0,0,0,2,0,4.982,4.982,0,0,1,9,2.963C24.5,14.726,17.827,20.352,14.5,22.727Z" transform="translate(-2 -3)" fill="#4c4c4c"/>
</svg>
